<!--?xml version="1.0" standalone="no"?-->
              <svg id="sw-js-blob-svg" viewBox="0 0 100 100" xmlns="http://www.w3.org/2000/svg" version="1.1">
                    <defs> 
                        <linearGradient id="sw-gradient" x1="0" x2="1" y1="1" y2="0">
                            <stop id="stop1" stop-color="rgba(0, 0, 255, 0.1)" offset="0%"></stop>
                            <stop id="stop2" stop-color="rgba(157, 0, 255, 0.3)" offset="100%"></stop>
                        </linearGradient>
                    </defs>
                <path fill="url(#sw-gradient)" d="M22.3,-36.9C28.3,-35.3,32,-27.9,34.8,-20.8C37.7,-13.7,39.7,-6.9,39.9,0.1C40.2,7.1,38.6,14.2,34.8,19.8C31,25.3,25.1,29.2,18.9,33.2C12.7,37.2,6.4,41.2,0.2,40.9C-6,40.6,-11.9,35.8,-18.9,32.2C-25.8,28.7,-33.7,26.4,-36.9,21.2C-40.2,16,-38.7,8,-38.1,0.3C-37.5,-7.4,-37.9,-14.7,-35.7,-21.7C-33.5,-28.6,-28.7,-35.1,-22.4,-36.4C-16,-37.8,-8,-34.1,0.1,-34.2C8.2,-34.4,16.4,-38.5,22.3,-36.9Z" width="100%" height="100%" transform="translate(50 50)" stroke-width="0" style="transition: all 0.3s ease 0s;" stroke="url(#sw-gradient)"></path>
              </svg>