<svg xmlns="http://www.w3.org/2000/svg" version="1.1" xmlns:xlink="http://www.w3.org/1999/xlink" xmlns:svgjs="http://svgjs.com/svgjs" width="1440" height="560" preserveAspectRatio="none" viewBox="0 0 1440 560"><g mask="url(&quot;#SvgjsMask1137&quot;)" fill="none"><rect width="1440" height="560" x="0" y="0" fill="rgba(24, 106, 59, 1)"></rect><path d="M0,544.967C129.968,543.534,269.548,659.832,379.337,590.26C488.98,520.78,474.933,355.651,499.799,228.251C519.452,127.559,523.606,28.364,508.825,-73.158C494.067,-174.516,479.436,-279.945,414.297,-358.991C348.431,-438.92,249.81,-483.363,149.51,-509.186C51.499,-534.42,-52.847,-538.461,-147.911,-503.738C-239.835,-470.162,-294.372,-383.035,-369.043,-319.777C-460.028,-242.699,-606.267,-207.052,-634.801,-91.271C-663.056,23.379,-544.882,119.452,-504.649,230.466C-459.758,354.334,-496.568,529.004,-384.753,598.688C-272.581,668.594,-132.164,546.425,0,544.967" fill="#155b33"></path><path d="M1440 1013.781C1523.435 997.784 1549.907 888.156 1621.243 842.02 1692.25 796.097 1798.894 814.218 1851.25 747.812 1905.395 679.137 1905.574 581.387 1895.194 494.553 1884.655 406.394 1847.742 324.079 1792.306 254.72500000000002 1735.328 183.442 1667.577 97.757 1576.345 95.65300000000002 1483.455 93.51100000000002 1436.491 218.25099999999998 1347.35 244.464 1258.271 270.659 1137.088 174.70999999999998 1074.441 243.24200000000002 1012.4929999999999 311.009 1115.225 420.551 1103.179 511.572 1091.357 600.898 984.014 670.7570000000001 1006.31 758.06 1028.141 843.543 1131.816 876.4739999999999 1207.815 921.2860000000001 1281.062 964.475 1356.489 1029.792 1440 1013.781" fill="#1b7943"></path></g><defs><mask id="SvgjsMask1137"><rect width="1440" height="560" fill="#ffffff"></rect></mask></defs></svg>